<?xml version="1.0" encoding="UTF-8"?>
<svg xmlns="http://www.w3.org/2000/svg" xmlns:xlink="http://www.w3.org/1999/xlink" viewBox="0 0 50 50" width="50px" height="50px">
<g id="surface6052793">
<path style=" stroke:none;fill-rule:nonzero;fill:rgb(37.64706%,37.64706%,37.64706%);fill-opacity:1;" d="M 25 2 C 23.75 2 22.683594 2.503906 22.003906 3.273438 C 21.320312 4.042969 21 5.027344 21 6 C 21 6.28125 21.035156 6.5625 21.089844 6.835938 L 10.058594 12.351562 C 10.035156 12.328125 10.019531 12.296875 10 12.273438 C 9.316406 11.503906 8.25 11 7 11 C 5.75 11 4.683594 11.503906 4.003906 12.273438 C 3.320312 13.042969 3 14.027344 3 15 C 3 15.972656 3.320312 16.957031 4.003906 17.726562 C 4.683594 18.496094 5.75 19 7 19 C 8.21875 19 9.257812 18.515625 9.941406 17.777344 L 20.820312 23.820312 C 20.917969 23.878906 21.03125 23.921875 21.148438 23.941406 C 21.058594 24.289062 21 24.644531 21 25 C 21 25.972656 21.320312 26.957031 22.003906 27.726562 C 22.488281 28.273438 23.214844 28.609375 24.019531 28.800781 C 24.003906 28.867188 24 28.933594 24 29 L 24 40.203125 C 23.203125 40.398438 22.484375 40.730469 22.003906 41.273438 C 21.980469 41.296875 21.964844 41.328125 21.945312 41.351562 L 10.914062 35.835938 C 10.964844 35.5625 11 35.28125 11 35 C 11 34.027344 10.679688 33.042969 10 32.273438 C 9.316406 31.503906 8.25 31 7 31 C 5.75 31 4.683594 31.503906 4.003906 32.273438 C 3.320312 33.042969 3 34.027344 3 35 C 3 35.972656 3.320312 36.957031 4.003906 37.726562 C 4.683594 38.496094 5.75 39 7 39 C 8.25 39 9.316406 38.496094 10 37.726562 C 10.019531 37.699219 10.035156 37.671875 10.058594 37.644531 L 21.089844 43.160156 C 21.035156 43.4375 21 43.71875 21 44 C 21 44.972656 21.320312 45.957031 22.003906 46.726562 C 22.683594 47.496094 23.75 48 25 48 C 26.25 48 27.316406 47.496094 28 46.726562 C 28.679688 45.957031 29 44.972656 29 44 C 29 43.71875 28.964844 43.4375 28.914062 43.160156 L 39.945312 37.644531 C 39.964844 37.671875 39.980469 37.703125 40.003906 37.726562 C 40.683594 38.496094 41.75 39 43 39 C 44.25 39 45.316406 38.496094 46 37.726562 C 46.679688 36.957031 47 35.972656 47 35 C 47 34.027344 46.679688 33.042969 46 32.273438 C 45.316406 31.503906 44.25 31 43 31 C 41.75 31 40.683594 31.503906 40.003906 32.273438 C 39.320312 33.042969 39 34.027344 39 35 C 39 35.28125 39.035156 35.5625 39.089844 35.835938 L 28.058594 41.351562 C 28.035156 41.328125 28.019531 41.296875 28 41.273438 C 27.515625 40.730469 26.796875 40.398438 26 40.203125 L 26 29 C 26 28.933594 25.996094 28.867188 25.984375 28.800781 C 26.785156 28.609375 27.511719 28.273438 28 27.726562 C 28.679688 26.957031 29 25.972656 29 25 C 29 24.652344 28.941406 24.304688 28.859375 23.964844 C 28.949219 23.941406 29.03125 23.90625 29.113281 23.859375 L 40.058594 17.777344 C 40.742188 18.515625 41.78125 19 43 19 C 44.25 19 45.316406 18.496094 46 17.726562 C 46.679688 16.957031 47 15.972656 47 15 C 47 14.027344 46.679688 13.042969 46 12.273438 C 45.316406 11.503906 44.25 11 43 11 C 41.75 11 40.683594 11.503906 40.003906 12.273438 C 39.320312 13.042969 39 14.027344 39 15 C 39 15.339844 39.054688 15.675781 39.132812 16.003906 L 28.140625 22.109375 C 28.074219 22.144531 28.011719 22.1875 27.957031 22.234375 C 27.273438 21.492188 26.226562 21 25 21 C 23.765625 21 22.714844 21.496094 22.03125 22.246094 C 21.960938 22.175781 21.878906 22.117188 21.789062 22.070312 L 10.867188 16.003906 C 10.945312 15.675781 11 15.339844 11 15 C 11 14.71875 10.964844 14.4375 10.914062 14.160156 L 21.945312 8.644531 C 21.964844 8.671875 21.980469 8.703125 22.003906 8.726562 C 22.683594 9.496094 23.75 10 25 10 C 26.25 10 27.316406 9.496094 28 8.726562 C 28.679688 7.957031 29 6.972656 29 6 C 29 5.027344 28.679688 4.042969 28 3.273438 C 27.316406 2.503906 26.25 2 25 2 Z M 25 4 C 25.75 4 26.183594 4.246094 26.503906 4.601562 C 26.820312 4.957031 27 5.472656 27 6 C 27 6.527344 26.820312 7.042969 26.503906 7.398438 C 26.183594 7.753906 25.75 8 25 8 C 24.25 8 23.816406 7.753906 23.496094 7.398438 C 23.179688 7.042969 23 6.527344 23 6 C 23 5.472656 23.179688 4.957031 23.496094 4.601562 C 23.816406 4.246094 24.25 4 25 4 Z M 7 13 C 7.75 13 8.183594 13.246094 8.503906 13.601562 C 8.820312 13.957031 9 14.472656 9 15 C 9 15.527344 8.820312 16.042969 8.503906 16.398438 C 8.183594 16.753906 7.75 17 7 17 C 6.25 17 5.816406 16.753906 5.496094 16.398438 C 5.179688 16.042969 5 15.527344 5 15 C 5 14.472656 5.179688 13.957031 5.496094 13.601562 C 5.816406 13.246094 6.25 13 7 13 Z M 43 13 C 43.75 13 44.183594 13.246094 44.503906 13.601562 C 44.820312 13.957031 45 14.472656 45 15 C 45 15.527344 44.820312 16.042969 44.503906 16.398438 C 44.183594 16.753906 43.75 17 43 17 C 42.25 17 41.816406 16.753906 41.496094 16.398438 C 41.179688 16.042969 41 15.527344 41 15 C 41 14.472656 41.179688 13.957031 41.496094 13.601562 C 41.816406 13.246094 42.25 13 43 13 Z M 25 23 C 25.75 23 26.183594 23.246094 26.503906 23.601562 C 26.820312 23.957031 27 24.472656 27 25 C 27 25.527344 26.820312 26.042969 26.503906 26.398438 C 26.183594 26.753906 25.75 27 25 27 C 24.25 27 23.816406 26.753906 23.496094 26.398438 C 23.179688 26.042969 23 25.527344 23 25 C 23 24.472656 23.179688 23.957031 23.496094 23.601562 C 23.816406 23.246094 24.25 23 25 23 Z M 7 33 C 7.75 33 8.183594 33.246094 8.503906 33.601562 C 8.820312 33.957031 9 34.472656 9 35 C 9 35.527344 8.820312 36.042969 8.503906 36.398438 C 8.183594 36.753906 7.75 37 7 37 C 6.25 37 5.816406 36.753906 5.496094 36.398438 C 5.179688 36.042969 5 35.527344 5 35 C 5 34.472656 5.179688 33.957031 5.496094 33.601562 C 5.816406 33.246094 6.25 33 7 33 Z M 43 33 C 43.75 33 44.183594 33.246094 44.503906 33.601562 C 44.820312 33.957031 45 34.472656 45 35 C 45 35.527344 44.820312 36.042969 44.503906 36.398438 C 44.183594 36.753906 43.75 37 43 37 C 42.25 37 41.816406 36.753906 41.496094 36.398438 C 41.179688 36.042969 41 35.527344 41 35 C 41 34.472656 41.179688 33.957031 41.496094 33.601562 C 41.816406 33.246094 42.25 33 43 33 Z M 24.972656 42.011719 C 24.992188 42.011719 25.011719 42.011719 25.03125 42.011719 C 25.753906 42.023438 26.191406 42.253906 26.503906 42.601562 C 26.820312 42.957031 27 43.472656 27 44 C 27 44.527344 26.820312 45.042969 26.503906 45.398438 C 26.183594 45.753906 25.75 46 25 46 C 24.25 46 23.816406 45.753906 23.496094 45.398438 C 23.179688 45.042969 23 44.527344 23 44 C 23 43.472656 23.179688 42.957031 23.496094 42.601562 C 23.808594 42.253906 24.246094 42.019531 24.972656 42.011719 Z M 24.972656 42.011719 "/>
</g>
</svg>
